<?xml version="1.0" standalone="no"?><svg xmlns="http://www.w3.org/2000/svg" viewBox="0 0 1440 320"><path fill="#1b56fd" fill-opacity="0.8" d="M0,32L24,42.7C48,53,96,75,144,69.3C192,64,240,32,288,37.3C336,43,384,85,432,128C480,171,528,213,576,224C624,235,672,213,720,181.3C768,149,816,107,864,117.3C912,128,960,192,1008,234.7C1056,277,1104,299,1152,304C1200,309,1248,299,1296,277.3C1344,256,1392,224,1416,208L1440,192L1440,320L1416,320C1392,320,1344,320,1296,320C1248,320,1200,320,1152,320C1104,320,1056,320,1008,320C960,320,912,320,864,320C816,320,768,320,720,320C672,320,624,320,576,320C528,320,480,320,432,320C384,320,336,320,288,320C240,320,192,320,144,320C96,320,48,320,24,320L0,320Z"></path></svg>