<?xml version="1.0" standalone="no"?><svg xmlns="http://www.w3.org/2000/svg" viewBox="0 0 1440 320"><path fill="#1b56fd" fill-opacity="0.8" d="M0,160L40,170.7C80,181,160,203,240,181.3C320,160,400,96,480,112C560,128,640,224,720,218.7C800,213,880,107,960,53.3C1040,0,1120,0,1200,10.7C1280,21,1360,43,1400,53.3L1440,64L1440,320L1400,320C1360,320,1280,320,1200,320C1120,320,1040,320,960,320C880,320,800,320,720,320C640,320,560,320,480,320C400,320,320,320,240,320C160,320,80,320,40,320L0,320Z"></path></svg>