<?xml version="1.0" standalone="no"?><svg xmlns="http://www.w3.org/2000/svg" viewBox="0 0 1440 320"><path fill="#1b56fd" fill-opacity="0.8" d="M0,192L40,186.7C80,181,160,171,240,160C320,149,400,139,480,128C560,117,640,107,720,122.7C800,139,880,181,960,176C1040,171,1120,117,1200,80C1280,43,1360,21,1400,10.7L1440,0L1440,320L1400,320C1360,320,1280,320,1200,320C1120,320,1040,320,960,320C880,320,800,320,720,320C640,320,560,320,480,320C400,320,320,320,240,320C160,320,80,320,40,320L0,320Z"></path></svg>