<?xml version="1.0" standalone="no"?><svg xmlns="http://www.w3.org/2000/svg" viewBox="0 0 1440 320"><path fill="#1b56fd" fill-opacity="0.8" d="M0,64L24,106.7C48,149,96,235,144,245.3C192,256,240,192,288,186.7C336,181,384,235,432,250.7C480,267,528,245,576,197.3C624,149,672,75,720,90.7C768,107,816,213,864,245.3C912,277,960,235,1008,213.3C1056,192,1104,192,1152,170.7C1200,149,1248,107,1296,74.7C1344,43,1392,21,1416,10.7L1440,0L1440,320L1416,320C1392,320,1344,320,1296,320C1248,320,1200,320,1152,320C1104,320,1056,320,1008,320C960,320,912,320,864,320C816,320,768,320,720,320C672,320,624,320,576,320C528,320,480,320,432,320C384,320,336,320,288,320C240,320,192,320,144,320C96,320,48,320,24,320L0,320Z"></path></svg>